<?xml version="1.0" encoding="utf-8"?>
<!-- Svg Vector Icons : http://www.onlinewebfonts.com/icon -->
<!DOCTYPE svg PUBLIC "-//W3C//DTD SVG 1.1//EN" "http://www.w3.org/Graphics/SVG/1.1/DTD/svg11.dtd">
<svg version="1.1" xmlns="http://www.w3.org/2000/svg" xmlns:xlink="http://www.w3.org/1999/xlink" x="0px" y="0px" viewBox="0 0 256 256" enable-background="new 0 0 256 256" xml:space="preserve">
<metadata> Svg Vector Icons : http://www.onlinewebfonts.com/icon </metadata>
<g>
    <path fill="#fff" d="M10,25.8v7.7h2.3c1.3,0,3.6,0.4,5.2,0.9c5.4,1.6,7.3,2.8,23.6,14.6C54.3,58.4,65,62.3,78.1,62.3c12.2,0,21.7-3.6,35.2-13.4c18.5-13.4,23.2-15.5,34.7-15.5c11.1,0.1,15.6,2,28.5,12.2c4.7,3.7,10.2,7.8,12.2,8.9c7.9,4.7,15.5,7,24.9,7.5l5.7,0.3l-4.5,4.6c-5.1,5.3-6.2,7.6-5.2,10.8c1.3,3.9,5.4,6.2,9.1,5.2c1.4-0.4,5-3.6,14.6-13.3L246,57.1l-0.3-3.3l-0.2-3.3l-12.8-12.7L220,25h-3c-2.6,0-3.2,0.2-4.9,1.7c-1,0.9-2.1,2.6-2.4,3.7c-1,3.4,0.1,5.4,6.1,11.6l5.4,5.5h-3.7c-7.4,0-15.2-2-20.8-5.4c-1.6-1-6.4-4.6-10.7-8c-9.7-7.7-14.6-10.7-21.2-13c-12.6-4.3-26.7-3.4-39,2.3c-4.4,2.1-11.6,6.7-21,13.5c-6.7,4.8-10.5,7-15.2,8.7c-7.3,2.6-17.6,2.4-25.6-0.6c-4.9-1.8-9-4.4-19.4-12.1c-13-9.6-20.9-13.3-31-14.4L10,18V25.8z"/>
    <path fill="#fff" d="M10,103.1v7.4l4.2,0.7c5.6,0.9,12,4.2,20.9,10.8c9.4,7.1,13.6,9.7,19.4,12.5c14.6,6.9,30.8,7.1,44.7,0.5c5.2-2.4,9.3-5.1,20.2-12.9c11.7-8.5,18.9-11.3,28.5-11.3c10.1,0,16.6,2.8,27.4,11.5c8.6,7,12,9.4,17.2,12c6.7,3.3,12.6,4.8,20.4,5.1l6.9,0.3l-4.8,4.8c-3.2,3.2-5.1,5.5-5.4,6.7c-1.6,5.4,3.1,10.4,8.9,9.3c1.8-0.3,3.7-2,13.9-12.1c6.5-6.5,12.2-12.5,12.7-13.3c0.4-0.8,0.7-2.4,0.7-3.6c0-1.2-0.3-2.8-0.7-3.6s-6.1-6.8-12.7-13.3c-10.2-10.1-12.1-11.8-13.9-12.1c-5.7-1.1-10.5,3.9-8.9,9.3c0.4,1.2,2.3,3.6,6,7.3l5.5,5.5H216c-5.4,0-11.2-1.2-15.8-3.2c-3.3-1.4-7.9-4.6-14.4-9.9c-14.4-11.8-23.6-15.7-37.8-15.7c-14,0-22.5,3.4-40.1,16c-10.3,7.4-17.2,11.2-22.2,12.2c-1.8,0.4-5.6,0.5-9.6,0.4c-10.9-0.4-16.7-2.9-30.7-13.4C31,100.3,23.8,96.8,13.6,96L10,95.7V103.1L10,103.1z"/>
    <path fill="#fff" d="M10,180.5c0,7.3,0,7.5,1.2,7.7c0.6,0.1,2.6,0.5,4.4,0.8c5,0.9,10.9,4.2,20.5,11.2c12.9,9.6,19.2,12.9,28.6,15.5c3.4,1,5.7,1.1,12.9,1.2c7.6,0.1,9.4-0.1,13-1.2c7.2-2.1,14.2-5.9,25-13.6c10.5-7.6,18.4-11.9,23.7-13.1c1.6-0.4,5.6-0.7,8.8-0.7c10.5,0.1,15.5,2.2,27.3,11.5c9.4,7.6,12.5,9.6,18.5,12.5c6.1,2.9,12.2,4.4,19.6,4.8l5.7,0.3l-4.5,4.6c-5.1,5.3-6.2,7.6-5.2,10.8c0.4,1.1,1.5,2.7,2.5,3.6c1.6,1.4,2.2,1.6,4.8,1.6h3l12.8-12.7l12.8-12.7l0.2-3.3l0.3-3.3l-12.7-12.7c-13.7-13.7-14.5-14.3-18.4-13.3c-2.3,0.7-5.1,3.6-5.5,6c-0.5,2.9,1,5.4,6.5,11.1l5.2,5.2h-3c-4.4,0-10.9-1-14.5-2.2c-4.6-1.5-9.3-4.5-17.2-10.8c-11.8-9.5-17.6-12.7-27.1-15.1c-5-1.2-17.7-1.2-22.6,0c-9.3,2.3-16.2,6-29.7,15.8c-13.9,10.1-20.8,12.7-31.1,12.1c-6.5-0.4-10.4-1.4-15.9-4c-4.1-2.1-6.3-3.6-18.5-12.5c-9.8-7.2-17.6-10.8-25.8-12C9.4,172.7,10,171.9,10,180.5z"/>
</g>
</svg>
